<svg xmlns="http://www.w3.org/2000/svg" xmlns:xlink="http://www.w3.org/1999/xlink" width="400" zoomAndPan="magnify" viewBox="0 0 300 299.999988" height="400" preserveAspectRatio="xMidYMid meet" version="1.0"><defs><clipPath id="55d5a46cd5"><path d="M 180 4.59375 L 270.03125 4.59375 L 270.03125 94 L 180 94 Z M 180 4.59375 " clip-rule="nonzero"/></clipPath></defs><path fill="#000000" d="M 117.53125 165.160156 C 118.863281 165.210938 120.183594 165.304688 121.488281 165.449219 C 122.796875 165.589844 124.0625 165.777344 125.285156 166.007812 C 126.511719 166.238281 127.675781 166.503906 128.777344 166.8125 C 129.875 167.121094 130.890625 167.464844 131.820312 167.839844 C 132.753906 168.214844 133.582031 168.613281 134.308594 169.042969 C 135.035156 169.46875 135.644531 169.914062 136.140625 170.375 C 136.632812 170.839844 137 171.308594 137.242188 171.792969 C 137.488281 172.273438 137.597656 172.753906 137.582031 173.234375 C 137.5625 173.710938 137.414062 174.183594 137.136719 174.644531 C 136.859375 175.105469 136.457031 175.546875 135.929688 175.972656 C 135.402344 176.398438 134.761719 176.796875 134.003906 177.167969 C 133.246094 177.539062 132.390625 177.878906 131.433594 178.179688 C 130.480469 178.484375 129.441406 178.75 128.320312 178.976562 C 127.203125 179.199219 126.023438 179.382812 124.78125 179.519531 C 123.542969 179.65625 122.265625 179.75 120.953125 179.792969 C 119.640625 179.839844 118.316406 179.835938 116.984375 179.785156 C 115.648438 179.738281 114.328125 179.640625 113.023438 179.496094 C 111.71875 179.355469 110.453125 179.167969 109.226562 178.9375 C 108 178.707031 106.835938 178.441406 105.738281 178.132812 C 104.636719 177.824219 103.621094 177.480469 102.691406 177.105469 C 101.761719 176.730469 100.933594 176.332031 100.207031 175.90625 C 99.480469 175.476562 98.867188 175.03125 98.375 174.570312 C 97.878906 174.105469 97.511719 173.636719 97.269531 173.15625 C 97.027344 172.675781 96.914062 172.195312 96.933594 171.714844 C 96.949219 171.234375 97.097656 170.761719 97.375 170.300781 C 97.652344 169.839844 98.054688 169.398438 98.582031 168.972656 C 99.109375 168.546875 99.753906 168.148438 100.507812 167.777344 C 101.265625 167.40625 102.121094 167.070312 103.078125 166.765625 C 104.035156 166.460938 105.070312 166.195312 106.191406 165.96875 C 107.3125 165.746094 108.492188 165.5625 109.730469 165.425781 C 110.972656 165.289062 112.246094 165.195312 113.558594 165.152344 C 114.871094 165.105469 116.195312 165.109375 117.53125 165.160156 Z M 117.53125 165.160156 " fill-opacity="1" fill-rule="nonzero"/><path fill="#000000" d="M 181.792969 164.042969 C 181.929688 164.503906 181.9375 165 181.820312 165.523438 C 181.707031 166.050781 181.464844 166.597656 181.101562 167.167969 C 180.738281 167.738281 180.257812 168.320312 179.65625 168.914062 C 179.058594 169.507812 178.355469 170.101562 177.546875 170.695312 C 176.738281 171.289062 175.839844 171.875 174.851562 172.445312 C 173.859375 173.015625 172.800781 173.5625 171.667969 174.089844 C 170.539062 174.617188 169.359375 175.109375 168.128906 175.574219 C 166.898438 176.035156 165.644531 176.453125 164.363281 176.832031 C 163.082031 177.210938 161.800781 177.542969 160.519531 177.824219 C 159.238281 178.105469 157.976562 178.332031 156.742188 178.507812 C 155.507812 178.679688 154.320312 178.796875 153.179688 178.855469 C 152.039062 178.914062 150.96875 178.917969 149.964844 178.859375 C 148.964844 178.800781 148.050781 178.683594 147.226562 178.511719 C 146.398438 178.339844 145.679688 178.113281 145.0625 177.832031 C 144.449219 177.550781 143.949219 177.222656 143.566406 176.84375 C 143.179688 176.464844 142.921875 176.046875 142.785156 175.585938 C 142.648438 175.125 142.636719 174.632812 142.753906 174.105469 C 142.871094 173.582031 143.109375 173.03125 143.476562 172.460938 C 143.839844 171.890625 144.320312 171.308594 144.917969 170.714844 C 145.515625 170.121094 146.21875 169.527344 147.03125 168.933594 C 147.839844 168.339844 148.738281 167.757812 149.726562 167.1875 C 150.714844 166.613281 151.777344 166.066406 152.90625 165.539062 C 154.039062 165.011719 155.21875 164.519531 156.449219 164.058594 C 157.675781 163.597656 158.933594 163.175781 160.210938 162.796875 C 161.492188 162.417969 162.773438 162.089844 164.058594 161.804688 C 165.339844 161.523438 166.597656 161.296875 167.835938 161.125 C 169.070312 160.949219 170.257812 160.832031 171.398438 160.773438 C 172.539062 160.714844 173.609375 160.714844 174.613281 160.773438 C 175.613281 160.832031 176.527344 160.945312 177.351562 161.117188 C 178.175781 161.289062 178.898438 161.515625 179.511719 161.796875 C 180.128906 162.078125 180.628906 162.40625 181.011719 162.785156 C 181.394531 163.164062 181.65625 163.582031 181.792969 164.042969 Z M 181.792969 164.042969 " fill-opacity="1" fill-rule="nonzero"/><path fill="#afd8f9" d="M 109.699219 167.125 C 110.398438 167.636719 111.027344 168.238281 111.578125 168.925781 C 112.128906 169.613281 112.597656 170.375 112.980469 171.207031 C 113.363281 172.042969 113.65625 172.933594 113.855469 173.882812 C 114.054688 174.832031 114.160156 175.820312 114.167969 176.847656 C 114.175781 177.875 114.085938 178.921875 113.902344 179.988281 C 113.71875 181.054688 113.441406 182.121094 113.074219 183.1875 C 112.703125 184.25 112.25 185.292969 111.710938 186.3125 C 111.171875 187.335938 110.558594 188.316406 109.867188 189.253906 C 109.179688 190.191406 108.429688 191.074219 107.617188 191.894531 C 106.804688 192.714844 105.945312 193.460938 105.039062 194.132812 C 104.136719 194.800781 103.203125 195.382812 102.242188 195.878906 C 101.277344 196.375 100.304688 196.773438 99.324219 197.074219 C 98.339844 197.375 97.367188 197.570312 96.402344 197.664062 C 95.4375 197.757812 94.5 197.75 93.589844 197.632812 C 92.679688 197.515625 91.8125 197.300781 90.992188 196.976562 C 90.171875 196.65625 89.410156 196.238281 88.710938 195.726562 C 88.007812 195.210938 87.382812 194.609375 86.832031 193.921875 C 86.277344 193.234375 85.808594 192.476562 85.425781 191.640625 C 85.042969 190.804688 84.753906 189.914062 84.554688 188.964844 C 84.355469 188.015625 84.25 187.027344 84.242188 186 C 84.234375 184.972656 84.324219 183.925781 84.507812 182.859375 C 84.691406 181.792969 84.964844 180.726562 85.335938 179.664062 C 85.703125 178.597656 86.15625 177.558594 86.699219 176.535156 C 87.238281 175.515625 87.851562 174.535156 88.539062 173.59375 C 89.230469 172.65625 89.980469 171.777344 90.792969 170.957031 C 91.605469 170.136719 92.464844 169.390625 93.367188 168.71875 C 94.273438 168.046875 95.207031 167.464844 96.167969 166.96875 C 97.128906 166.472656 98.101562 166.078125 99.085938 165.777344 C 100.066406 165.476562 101.039062 165.277344 102.007812 165.183594 C 102.972656 165.089844 103.910156 165.101562 104.820312 165.214844 C 105.730469 165.332031 106.597656 165.550781 107.417969 165.871094 C 108.238281 166.191406 109 166.609375 109.699219 167.125 Z M 109.699219 167.125 " fill-opacity="1" fill-rule="nonzero"/><path fill="#ffffff" d="M 93.574219 175.421875 C 96.929688 170.851562 101.152344 168.25 99.648438 167.148438 C 98.144531 166.042969 94.207031 168.851562 90.851562 173.421875 C 87.496094 177.992188 85.996094 182.597656 87.5 183.695312 C 89.003906 184.800781 90.21875 179.992188 93.574219 175.421875 Z M 93.574219 175.421875 " fill-opacity="1" fill-rule="nonzero"/><path fill="#000000" d="M 173.421875 239.921875 C 173.421875 240.65625 173.371094 241.386719 173.269531 242.117188 C 173.164062 242.84375 173.011719 243.570312 172.804688 244.289062 C 172.597656 245.007812 172.34375 245.714844 172.035156 246.417969 C 171.730469 247.117188 171.375 247.808594 170.972656 248.484375 C 170.570312 249.160156 170.117188 249.824219 169.621094 250.46875 C 169.125 251.117188 168.582031 251.742188 167.996094 252.351562 C 167.414062 252.960938 166.785156 253.550781 166.117188 254.117188 C 165.449219 254.683594 164.742188 255.222656 163.996094 255.742188 C 163.25 256.261719 162.46875 256.753906 161.652344 257.21875 C 160.839844 257.683594 159.992188 258.117188 159.117188 258.523438 C 158.242188 258.933594 157.335938 259.308594 156.40625 259.652344 C 155.476562 260 154.527344 260.3125 153.550781 260.59375 C 152.578125 260.871094 151.585938 261.121094 150.578125 261.332031 C 149.570312 261.542969 148.546875 261.722656 147.511719 261.867188 C 146.480469 262.007812 145.4375 262.117188 144.390625 262.1875 C 143.339844 262.257812 142.289062 262.296875 141.234375 262.296875 C 140.179688 262.296875 139.128906 262.257812 138.078125 262.1875 C 137.03125 262.117188 135.988281 262.007812 134.953125 261.867188 C 133.921875 261.722656 132.898438 261.542969 131.890625 261.332031 C 130.882812 261.121094 129.890625 260.871094 128.914062 260.59375 C 127.941406 260.3125 126.988281 260 126.058594 259.652344 C 125.128906 259.308594 124.226562 258.933594 123.351562 258.523438 C 122.472656 258.117188 121.628906 257.683594 120.8125 257.21875 C 120 256.753906 119.21875 256.261719 118.472656 255.742188 C 117.726562 255.222656 117.019531 254.683594 116.351562 254.117188 C 115.683594 253.550781 115.054688 252.960938 114.46875 252.351562 C 113.882812 251.742188 113.34375 251.117188 112.847656 250.46875 C 112.347656 249.824219 111.898438 249.160156 111.496094 248.484375 C 111.09375 247.808594 110.738281 247.117188 110.429688 246.417969 C 110.125 245.714844 109.871094 245.007812 109.664062 244.289062 C 109.457031 243.570312 109.304688 242.84375 109.199219 242.117188 C 109.097656 241.386719 109.046875 240.65625 109.046875 239.921875 C 109.046875 239.191406 109.097656 238.460938 109.199219 237.730469 C 109.304688 237 109.457031 236.277344 109.664062 235.558594 C 109.871094 234.839844 110.125 234.128906 110.429688 233.429688 C 110.738281 232.726562 111.09375 232.039062 111.496094 231.359375 C 111.898438 230.683594 112.347656 230.023438 112.847656 229.375 C 113.34375 228.730469 113.882812 228.101562 114.46875 227.492188 C 115.054688 226.882812 115.683594 226.296875 116.351562 225.730469 C 117.019531 225.164062 117.726562 224.621094 118.472656 224.101562 C 119.21875 223.585938 120 223.09375 120.8125 222.628906 C 121.628906 222.164062 122.472656 221.726562 123.351562 221.320312 C 124.226562 220.914062 125.128906 220.539062 126.058594 220.191406 C 126.988281 219.847656 127.941406 219.535156 128.914062 219.253906 C 129.890625 218.972656 130.882812 218.726562 131.890625 218.511719 C 132.898438 218.300781 133.921875 218.121094 134.953125 217.980469 C 135.988281 217.835938 137.03125 217.730469 138.078125 217.65625 C 139.128906 217.585938 140.179688 217.550781 141.234375 217.550781 C 142.289062 217.550781 143.339844 217.585938 144.390625 217.65625 C 145.4375 217.730469 146.480469 217.835938 147.511719 217.980469 C 148.546875 218.121094 149.570312 218.300781 150.578125 218.511719 C 151.585938 218.726562 152.578125 218.972656 153.550781 219.253906 C 154.527344 219.535156 155.476562 219.847656 156.40625 220.191406 C 157.335938 220.539062 158.242188 220.914062 159.117188 221.320312 C 159.992188 221.726562 160.839844 222.164062 161.652344 222.628906 C 162.46875 223.09375 163.25 223.585938 163.996094 224.101562 C 164.742188 224.621094 165.449219 225.164062 166.117188 225.730469 C 166.785156 226.296875 167.414062 226.882812 167.996094 227.492188 C 168.582031 228.101562 169.125 228.730469 169.621094 229.375 C 170.117188 230.023438 170.570312 230.683594 170.972656 231.359375 C 171.375 232.039062 171.730469 232.726562 172.035156 233.429688 C 172.34375 234.128906 172.597656 234.839844 172.804688 235.558594 C 173.011719 236.277344 173.164062 237 173.269531 237.730469 C 173.371094 238.460938 173.421875 239.191406 173.421875 239.921875 Z M 173.421875 239.921875 " fill-opacity="1" fill-rule="nonzero"/><path fill="#4991c9" d="M 103.375 208.304688 C 103.375 186.222656 120.324219 159.535156 141.234375 159.535156 C 162.144531 159.535156 179.09375 186.222656 179.09375 208.304688 C 179.09375 230.382812 162.144531 239.492188 141.234375 239.492188 C 120.324219 239.492188 103.375 230.382812 103.375 208.304688 Z M 103.375 208.304688 " fill-opacity="1" fill-rule="nonzero"/><path fill="#000000" d="M 141.234375 151.3125 C 146.625 151.3125 150.996094 152.28125 150.996094 159.902344 C 150.996094 167.519531 146.625 178.898438 141.234375 178.898438 C 135.839844 178.898438 131.46875 167.523438 131.46875 159.902344 C 131.46875 152.285156 135.839844 151.3125 141.234375 151.3125 Z M 141.234375 151.3125 " fill-opacity="1" fill-rule="nonzero"/><path fill="#31e3d8" d="M 180.203125 261.429688 C 181.652344 274.375 176.847656 289.972656 170.765625 290.648438 C 164.683594 291.332031 155.707031 275.792969 154.265625 262.847656 C 152.484375 246.871094 158.863281 243.238281 164.976562 242.890625 C 172.382812 242.46875 178.753906 248.484375 180.203125 261.429688 Z M 180.203125 261.429688 " fill-opacity="1" fill-rule="nonzero"/><path fill="#afd8f9" d="M 180.203125 261.429688 C 181.652344 274.375 179.359375 298.542969 173.277344 299.222656 C 167.195312 299.902344 159.625 276.839844 158.179688 263.894531 C 156.730469 250.949219 161.046875 244.910156 167.128906 244.230469 C 173.210938 243.546875 178.753906 248.484375 180.203125 261.429688 Z M 180.203125 261.429688 " fill-opacity="1" fill-rule="nonzero"/><path fill="#ffffff" d="M 167.390625 257.851562 C 167.394531 258.398438 167.382812 258.941406 167.34375 259.476562 C 167.308594 260.011719 167.25 260.535156 167.171875 261.039062 C 167.089844 261.546875 166.992188 262.027344 166.871094 262.484375 C 166.753906 262.941406 166.617188 263.363281 166.460938 263.75 C 166.308594 264.140625 166.140625 264.488281 165.957031 264.792969 C 165.773438 265.101562 165.578125 265.359375 165.375 265.570312 C 165.167969 265.78125 164.957031 265.945312 164.738281 266.054688 C 164.515625 266.164062 164.296875 266.21875 164.070312 266.222656 C 163.84375 266.226562 163.621094 266.175781 163.398438 266.070312 C 163.175781 265.96875 162.960938 265.8125 162.75 265.605469 C 162.539062 265.398438 162.339844 265.144531 162.148438 264.84375 C 161.957031 264.542969 161.777344 264.199219 161.613281 263.816406 C 161.449219 263.429688 161.300781 263.011719 161.171875 262.558594 C 161.039062 262.105469 160.929688 261.628906 160.835938 261.125 C 160.742188 260.621094 160.671875 260.101562 160.621094 259.566406 C 160.570312 259.027344 160.539062 258.488281 160.53125 257.941406 C 160.527344 257.394531 160.539062 256.851562 160.578125 256.316406 C 160.613281 255.78125 160.671875 255.257812 160.75 254.75 C 160.832031 254.246094 160.929688 253.765625 161.050781 253.308594 C 161.167969 252.851562 161.304688 252.429688 161.460938 252.039062 C 161.613281 251.652344 161.78125 251.304688 161.964844 251 C 162.148438 250.691406 162.34375 250.433594 162.546875 250.222656 C 162.753906 250.007812 162.964844 249.847656 163.183594 249.738281 C 163.40625 249.628906 163.625 249.574219 163.851562 249.570312 C 164.078125 249.566406 164.300781 249.617188 164.523438 249.722656 C 164.746094 249.824219 164.960938 249.980469 165.171875 250.1875 C 165.382812 250.394531 165.582031 250.648438 165.773438 250.949219 C 165.964844 251.25 166.144531 251.59375 166.308594 251.976562 C 166.472656 252.363281 166.621094 252.78125 166.75 253.234375 C 166.882812 253.6875 166.992188 254.164062 167.085938 254.667969 C 167.179688 255.171875 167.25 255.691406 167.300781 256.226562 C 167.351562 256.761719 167.382812 257.304688 167.390625 257.851562 Z M 167.390625 257.851562 " fill-opacity="1" fill-rule="nonzero"/><path fill="#4991c9" d="M 180.578125 267.007812 C 180.625 268.515625 180.632812 270.089844 180.605469 271.691406 C 179.714844 272.847656 178.777344 273.941406 177.800781 274.980469 C 174.6875 278.289062 171.144531 281.011719 167.273438 283.070312 C 165.886719 283.804688 164.558594 284.402344 163.320312 284.890625 C 163.015625 284.046875 162.714844 283.179688 162.425781 282.308594 C 163.578125 281.851562 164.824219 281.289062 166.121094 280.597656 C 170.371094 278.316406 175.871094 274.21875 180.578125 267.007812 Z M 180.578125 267.007812 " fill-opacity="1" fill-rule="nonzero"/><path fill="#4991c9" d="M 180.375 277.257812 C 180.269531 278.8125 180.132812 280.359375 179.960938 281.871094 C 176.929688 285.015625 173.511719 287.613281 169.785156 289.589844 C 168.460938 290.292969 167.191406 290.871094 166.007812 291.34375 C 165.625 290.554688 165.246094 289.71875 164.875 288.851562 C 166.050781 288.394531 167.3125 287.824219 168.632812 287.113281 C 172.089844 285.261719 176.367188 282.210938 180.375 277.257812 Z M 180.375 277.257812 " fill-opacity="1" fill-rule="nonzero"/><path fill="#31e3d8" d="M 103.5625 260.167969 C 100.367188 272.792969 103.003906 288.898438 108.9375 290.398438 C 114.871094 291.902344 125.875 277.726562 129.0625 265.101562 C 132.996094 249.511719 127.171875 245.050781 121.164062 243.875 C 113.886719 242.449219 106.753906 247.542969 103.558594 260.167969 Z M 103.5625 260.167969 " fill-opacity="1" fill-rule="nonzero"/><path fill="#afd8f9" d="M 103.5625 260.167969 C 100.367188 272.792969 99.351562 297.046875 105.285156 298.550781 C 111.214844 300.050781 121.855469 278.230469 125.046875 265.601562 C 128.242188 252.976562 124.785156 246.40625 118.851562 244.90625 C 112.917969 243.402344 106.753906 247.539062 103.5625 260.167969 Z M 103.5625 260.167969 " fill-opacity="1" fill-rule="nonzero"/><path fill="#ffffff" d="M 118.105469 246.5625 C 118.269531 246.71875 118.394531 246.910156 118.480469 247.136719 C 118.566406 247.367188 118.613281 247.628906 118.621094 247.925781 C 118.628906 248.21875 118.59375 248.542969 118.523438 248.890625 C 118.449219 249.242188 118.335938 249.609375 118.1875 250 C 118.035156 250.390625 117.847656 250.792969 117.628906 251.210938 C 117.40625 251.625 117.152344 252.046875 116.867188 252.472656 C 116.582031 252.898438 116.269531 253.320312 115.933594 253.738281 C 115.597656 254.160156 115.242188 254.566406 114.863281 254.964844 C 114.488281 255.359375 114.101562 255.738281 113.699219 256.097656 C 113.296875 256.457031 112.894531 256.789062 112.484375 257.097656 C 112.074219 257.402344 111.667969 257.679688 111.261719 257.921875 C 110.859375 258.167969 110.464844 258.375 110.085938 258.542969 C 109.703125 258.714844 109.339844 258.847656 108.996094 258.9375 C 108.652344 259.03125 108.332031 259.078125 108.035156 259.089844 C 107.742188 259.097656 107.476562 259.0625 107.242188 258.988281 C 107.011719 258.914062 106.8125 258.800781 106.648438 258.644531 C 106.484375 258.492188 106.359375 258.296875 106.273438 258.070312 C 106.1875 257.839844 106.140625 257.578125 106.132812 257.28125 C 106.125 256.988281 106.160156 256.664062 106.230469 256.316406 C 106.304688 255.96875 106.417969 255.597656 106.566406 255.207031 C 106.71875 254.816406 106.902344 254.414062 107.125 254 C 107.347656 253.582031 107.601562 253.160156 107.886719 252.734375 C 108.171875 252.308594 108.480469 251.886719 108.820312 251.46875 C 109.15625 251.046875 109.511719 250.640625 109.890625 250.242188 C 110.265625 249.847656 110.652344 249.46875 111.054688 249.109375 C 111.453125 248.75 111.859375 248.417969 112.269531 248.113281 C 112.679688 247.804688 113.085938 247.527344 113.492188 247.285156 C 113.894531 247.042969 114.285156 246.835938 114.667969 246.664062 C 115.050781 246.492188 115.414062 246.359375 115.757812 246.269531 C 116.101562 246.175781 116.421875 246.128906 116.714844 246.117188 C 117.011719 246.109375 117.277344 246.144531 117.507812 246.21875 C 117.742188 246.292969 117.941406 246.40625 118.105469 246.5625 Z M 118.105469 246.5625 " fill-opacity="1" fill-rule="nonzero"/><path fill="#4991c9" d="M 102.429688 265.640625 C 102.179688 267.128906 101.957031 268.6875 101.765625 270.277344 C 102.492188 271.542969 103.269531 272.757812 104.09375 273.917969 C 106.730469 277.621094 109.871094 280.800781 113.425781 283.363281 C 114.699219 284.285156 115.933594 285.058594 117.089844 285.707031 C 117.511719 284.914062 117.921875 284.097656 118.328125 283.269531 C 117.246094 282.664062 116.09375 281.9375 114.902344 281.070312 C 111 278.234375 106.109375 273.425781 102.429688 265.640625 Z M 102.429688 265.640625 " fill-opacity="1" fill-rule="nonzero"/><path fill="#4991c9" d="M 101.238281 275.824219 C 101.128906 277.378906 101.054688 278.929688 101.019531 280.449219 C 103.589844 283.976562 106.628906 287.011719 110.046875 289.480469 C 111.265625 290.355469 112.441406 291.101562 113.554688 291.730469 C 114.042969 291 114.527344 290.226562 115.011719 289.417969 C 113.914062 288.800781 112.738281 288.066406 111.527344 287.1875 C 108.355469 284.882812 104.53125 281.273438 101.234375 275.824219 Z M 101.238281 275.824219 " fill-opacity="1" fill-rule="nonzero"/><path fill="#3e779e" d="M 157.722656 200.484375 C 157.722656 207.457031 150.34375 221.425781 141.234375 221.425781 C 132.125 221.425781 124.742188 207.457031 124.742188 200.484375 C 124.742188 193.507812 157.722656 193.507812 157.722656 200.484375 Z M 157.722656 200.484375 " fill-opacity="1" fill-rule="nonzero"/><path fill="#31e3d8" d="M 153.386719 202.820312 C 153.386719 208.324219 147.945312 219.34375 141.234375 219.34375 C 134.519531 219.34375 129.082031 208.324219 129.082031 202.820312 C 129.082031 197.316406 153.382812 197.316406 153.382812 202.820312 Z M 153.386719 202.820312 " fill-opacity="1" fill-rule="nonzero"/><path fill="#afd8f9" d="M 198.878906 153.304688 C 199.285156 154.074219 199.585938 154.886719 199.78125 155.746094 C 199.976562 156.605469 200.066406 157.496094 200.046875 158.414062 C 200.023438 159.332031 199.898438 160.261719 199.660156 161.203125 C 199.425781 162.140625 199.085938 163.074219 198.644531 164.003906 C 198.203125 164.929688 197.664062 165.832031 197.03125 166.710938 C 196.402344 167.589844 195.6875 168.429688 194.890625 169.222656 C 194.09375 170.019531 193.230469 170.757812 192.296875 171.441406 C 191.367188 172.125 190.382812 172.734375 189.355469 173.277344 C 188.324219 173.820312 187.265625 174.285156 186.175781 174.667969 C 185.085938 175.050781 183.988281 175.34375 182.878906 175.550781 C 181.773438 175.757812 180.679688 175.875 179.597656 175.898438 C 178.515625 175.921875 177.46875 175.855469 176.453125 175.695312 C 175.4375 175.535156 174.476562 175.289062 173.566406 174.949219 C 172.65625 174.613281 171.820312 174.191406 171.050781 173.691406 C 170.28125 173.1875 169.597656 172.613281 169 171.964844 C 168.402344 171.316406 167.902344 170.609375 167.496094 169.839844 C 167.089844 169.070312 166.789062 168.257812 166.59375 167.398438 C 166.398438 166.539062 166.3125 165.648438 166.332031 164.730469 C 166.351562 163.8125 166.480469 162.882812 166.714844 161.941406 C 166.949219 161.003906 167.289062 160.066406 167.734375 159.140625 C 168.175781 158.214844 168.710938 157.308594 169.34375 156.433594 C 169.976562 155.554688 170.691406 154.714844 171.488281 153.921875 C 172.285156 153.125 173.148438 152.386719 174.078125 151.703125 C 175.011719 151.019531 175.992188 150.410156 177.023438 149.867188 C 178.054688 149.324219 179.113281 148.859375 180.203125 148.476562 C 181.292969 148.09375 182.390625 147.800781 183.496094 147.59375 C 184.605469 147.386719 185.699219 147.269531 186.78125 147.246094 C 187.863281 147.21875 188.910156 147.289062 189.925781 147.449219 C 190.9375 147.609375 191.902344 147.855469 192.808594 148.195312 C 193.71875 148.53125 194.558594 148.949219 195.328125 149.453125 C 196.09375 149.957031 196.777344 150.53125 197.375 151.179688 C 197.972656 151.828125 198.476562 152.535156 198.878906 153.304688 Z M 198.878906 153.304688 " fill-opacity="1" fill-rule="nonzero"/><path fill="#ffffff" d="M 177.324219 156.175781 C 182.335938 153.53125 187.273438 153.039062 186.402344 151.386719 C 185.535156 149.738281 180.761719 150.542969 175.746094 153.1875 C 170.730469 155.828125 167.371094 159.308594 168.238281 160.957031 C 169.109375 162.609375 172.304688 158.816406 177.320312 156.171875 Z M 177.324219 156.175781 " fill-opacity="1" fill-rule="nonzero"/><path fill="#000000" d="M 214.707031 136.28125 C 215.050781 136.597656 215.324219 136.980469 215.527344 137.433594 C 215.730469 137.882812 215.863281 138.394531 215.925781 138.960938 C 215.984375 139.53125 215.972656 140.148438 215.886719 140.808594 C 215.796875 141.472656 215.640625 142.171875 215.410156 142.90625 C 215.179688 143.636719 214.882812 144.390625 214.515625 145.167969 C 214.152344 145.941406 213.726562 146.722656 213.238281 147.507812 C 212.753906 148.292969 212.214844 149.070312 211.628906 149.839844 C 211.039062 150.605469 210.414062 151.351562 209.746094 152.070312 C 209.078125 152.789062 208.382812 153.472656 207.660156 154.117188 C 206.941406 154.761719 206.207031 155.355469 205.457031 155.898438 C 204.710938 156.441406 203.964844 156.925781 203.21875 157.347656 C 202.476562 157.769531 201.746094 158.121094 201.03125 158.40625 C 200.316406 158.691406 199.632812 158.902344 198.980469 159.039062 C 198.324219 159.175781 197.710938 159.234375 197.140625 159.21875 C 196.570312 159.199219 196.050781 159.105469 195.585938 158.933594 C 195.121094 158.765625 194.714844 158.519531 194.375 158.203125 C 194.03125 157.886719 193.757812 157.503906 193.554688 157.050781 C 193.347656 156.601562 193.214844 156.089844 193.15625 155.523438 C 193.097656 154.953125 193.109375 154.335938 193.195312 153.675781 C 193.28125 153.011719 193.441406 152.3125 193.671875 151.578125 C 193.902344 150.847656 194.199219 150.09375 194.566406 149.316406 C 194.929688 148.542969 195.355469 147.761719 195.84375 146.976562 C 196.328125 146.191406 196.863281 145.414062 197.453125 144.644531 C 198.042969 143.878906 198.667969 143.132812 199.335938 142.414062 C 200.003906 141.695312 200.699219 141.011719 201.421875 140.367188 C 202.140625 139.722656 202.875 139.128906 203.625 138.585938 C 204.371094 138.042969 205.117188 137.558594 205.863281 137.136719 C 206.605469 136.714844 207.335938 136.363281 208.050781 136.078125 C 208.761719 135.792969 209.449219 135.582031 210.101562 135.445312 C 210.757812 135.308594 211.371094 135.25 211.941406 135.265625 C 212.511719 135.285156 213.03125 135.378906 213.496094 135.550781 C 213.960938 135.71875 214.367188 135.964844 214.707031 136.28125 Z M 214.707031 136.28125 " fill-opacity="1" fill-rule="nonzero"/><path fill="#afd8f9" d="M 225.957031 124.152344 C 226.59375 124.742188 227.148438 125.410156 227.617188 126.15625 C 228.085938 126.902344 228.464844 127.710938 228.75 128.585938 C 229.035156 129.457031 229.222656 130.375 229.3125 131.339844 C 229.402344 132.308594 229.390625 133.300781 229.28125 134.324219 C 229.171875 135.34375 228.964844 136.375 228.660156 137.414062 C 228.355469 138.449219 227.960938 139.476562 227.472656 140.492188 C 226.984375 141.507812 226.414062 142.492188 225.761719 143.445312 C 225.109375 144.398438 224.386719 145.300781 223.59375 146.15625 C 222.800781 147.007812 221.953125 147.796875 221.054688 148.519531 C 220.152344 149.242188 219.214844 149.882812 218.238281 150.445312 C 217.265625 151.007812 216.269531 151.480469 215.257812 151.863281 C 214.246094 152.246094 213.234375 152.53125 212.222656 152.714844 C 211.214844 152.902344 210.222656 152.984375 209.253906 152.96875 C 208.285156 152.953125 207.355469 152.835938 206.460938 152.617188 C 205.570312 152.394531 204.734375 152.082031 203.957031 151.667969 C 203.175781 151.253906 202.46875 150.753906 201.832031 150.160156 C 201.195312 149.570312 200.640625 148.902344 200.171875 148.15625 C 199.703125 147.410156 199.324219 146.601562 199.039062 145.726562 C 198.753906 144.855469 198.566406 143.9375 198.476562 142.96875 C 198.386719 142.003906 198.398438 141.011719 198.507812 139.988281 C 198.617188 138.96875 198.824219 137.9375 199.128906 136.898438 C 199.433594 135.863281 199.832031 134.835938 200.316406 133.820312 C 200.804688 132.804688 201.375 131.820312 202.027344 130.867188 C 202.683594 129.914062 203.402344 129.011719 204.195312 128.15625 C 204.988281 127.304688 205.835938 126.515625 206.734375 125.792969 C 207.636719 125.070312 208.574219 124.429688 209.550781 123.867188 C 210.527344 123.300781 211.519531 122.832031 212.53125 122.449219 C 213.542969 122.066406 214.554688 121.78125 215.566406 121.597656 C 216.578125 121.410156 217.566406 121.324219 218.535156 121.34375 C 219.503906 121.359375 220.4375 121.476562 221.328125 121.695312 C 222.21875 121.914062 223.054688 122.230469 223.832031 122.644531 C 224.613281 123.058594 225.320312 123.558594 225.957031 124.152344 Z M 225.957031 124.152344 " fill-opacity="1" fill-rule="nonzero"/><path fill="#4991c9" d="M 225.472656 125.144531 C 225.832031 125.476562 226.167969 125.820312 226.484375 126.179688 C 226.804688 126.539062 227.09375 126.90625 227.363281 127.28125 C 227.628906 127.65625 227.863281 128.03125 228.066406 128.410156 C 228.273438 128.785156 228.441406 129.152344 228.578125 129.511719 C 228.710938 129.875 228.808594 130.222656 228.867188 130.554688 C 228.929688 130.886719 228.949219 131.203125 228.933594 131.496094 C 228.914062 131.785156 228.859375 132.054688 228.765625 132.292969 C 228.671875 132.535156 228.542969 132.746094 228.375 132.925781 C 228.210938 133.105469 228.011719 133.25 227.777344 133.363281 C 227.542969 133.472656 227.28125 133.546875 226.992188 133.585938 C 226.699219 133.625 226.386719 133.628906 226.050781 133.59375 C 225.714844 133.558594 225.359375 133.488281 224.988281 133.378906 C 224.621094 133.273438 224.238281 133.132812 223.851562 132.957031 C 223.460938 132.78125 223.070312 132.574219 222.675781 132.335938 C 222.28125 132.097656 221.894531 131.835938 221.511719 131.546875 C 221.128906 131.253906 220.757812 130.945312 220.402344 130.613281 C 220.042969 130.28125 219.707031 129.9375 219.386719 129.574219 C 219.070312 129.214844 218.777344 128.847656 218.511719 128.472656 C 218.246094 128.097656 218.011719 127.722656 217.804688 127.347656 C 217.601562 126.972656 217.433594 126.605469 217.296875 126.242188 C 217.164062 125.882812 217.066406 125.535156 217.003906 125.203125 C 216.945312 124.867188 216.925781 124.554688 216.941406 124.261719 C 216.957031 123.96875 217.015625 123.703125 217.109375 123.460938 C 217.199219 123.222656 217.332031 123.011719 217.496094 122.832031 C 217.664062 122.652344 217.863281 122.507812 218.097656 122.394531 C 218.332031 122.285156 218.59375 122.207031 218.882812 122.167969 C 219.171875 122.128906 219.488281 122.128906 219.824219 122.164062 C 220.160156 122.199219 220.515625 122.269531 220.882812 122.375 C 221.253906 122.484375 221.632812 122.625 222.023438 122.800781 C 222.414062 122.976562 222.804688 123.183594 223.199219 123.421875 C 223.59375 123.65625 223.980469 123.921875 224.363281 124.210938 C 224.746094 124.5 225.117188 124.8125 225.472656 125.144531 Z M 225.472656 125.144531 " fill-opacity="1" fill-rule="nonzero"/><path fill="#ffffff" d="M 206.570312 134.035156 C 210.425781 129.878906 214.917969 127.777344 213.554688 126.507812 C 212.183594 125.242188 207.953125 127.582031 204.09375 131.738281 C 200.242188 135.894531 198.222656 140.292969 199.589844 141.5625 C 200.960938 142.832031 202.714844 138.195312 206.574219 134.039062 Z M 206.570312 134.035156 " fill-opacity="1" fill-rule="nonzero"/><path fill="#000000" d="M 73.140625 108.253906 C 73.269531 108.9375 73.382812 109.621094 73.484375 110.304688 C 73.585938 110.988281 73.671875 111.671875 73.746094 112.351562 C 73.820312 113.03125 73.875 113.703125 73.917969 114.375 C 73.960938 115.042969 73.992188 115.699219 74.003906 116.351562 C 74.015625 117.003906 74.015625 117.640625 73.996094 118.265625 C 73.980469 118.894531 73.949219 119.507812 73.902344 120.101562 C 73.851562 120.699219 73.792969 121.277344 73.714844 121.839844 C 73.636719 122.398438 73.546875 122.941406 73.441406 123.460938 C 73.335938 123.980469 73.21875 124.476562 73.085938 124.949219 C 72.949219 125.425781 72.804688 125.871094 72.644531 126.296875 C 72.484375 126.71875 72.3125 127.113281 72.128906 127.480469 C 71.945312 127.851562 71.75 128.1875 71.542969 128.5 C 71.332031 128.808594 71.113281 129.089844 70.886719 129.335938 C 70.65625 129.585938 70.417969 129.800781 70.171875 129.988281 C 69.925781 130.171875 69.667969 130.324219 69.402344 130.441406 C 69.140625 130.5625 68.867188 130.648438 68.589844 130.703125 C 68.3125 130.753906 68.027344 130.773438 67.738281 130.757812 C 67.449219 130.746094 67.15625 130.695312 66.855469 130.613281 C 66.558594 130.535156 66.257812 130.417969 65.953125 130.273438 C 65.648438 130.125 65.34375 129.945312 65.039062 129.730469 C 64.730469 129.519531 64.425781 129.277344 64.117188 129 C 63.8125 128.726562 63.507812 128.421875 63.203125 128.085938 C 62.902344 127.75 62.601562 127.386719 62.304688 126.992188 C 62.007812 126.601562 61.714844 126.183594 61.425781 125.738281 C 61.136719 125.292969 60.855469 124.824219 60.578125 124.328125 C 60.300781 123.835938 60.03125 123.320312 59.769531 122.78125 C 59.507812 122.242188 59.253906 121.683594 59.007812 121.109375 C 58.765625 120.53125 58.527344 119.9375 58.304688 119.328125 C 58.078125 118.71875 57.863281 118.09375 57.65625 117.457031 C 57.453125 116.816406 57.261719 116.167969 57.078125 115.511719 C 56.898438 114.851562 56.730469 114.183594 56.574219 113.511719 C 56.417969 112.835938 56.273438 112.160156 56.144531 111.476562 C 56.015625 110.792969 55.902344 110.109375 55.800781 109.425781 C 55.699219 108.742188 55.609375 108.058594 55.539062 107.382812 C 55.464844 106.703125 55.410156 106.027344 55.367188 105.359375 C 55.324219 104.691406 55.292969 104.03125 55.28125 103.378906 C 55.269531 102.730469 55.269531 102.089844 55.289062 101.464844 C 55.304688 100.839844 55.335938 100.226562 55.382812 99.628906 C 55.429688 99.03125 55.492188 98.453125 55.570312 97.894531 C 55.648438 97.332031 55.738281 96.792969 55.84375 96.273438 C 55.949219 95.753906 56.066406 95.253906 56.199219 94.78125 C 56.332031 94.308594 56.480469 93.859375 56.640625 93.4375 C 56.800781 93.015625 56.972656 92.617188 57.15625 92.25 C 57.339844 91.882812 57.535156 91.542969 57.742188 91.234375 C 57.953125 90.921875 58.167969 90.644531 58.398438 90.394531 C 58.628906 90.148438 58.867188 89.929688 59.113281 89.746094 C 59.359375 89.5625 59.617188 89.410156 59.882812 89.289062 C 60.144531 89.167969 60.417969 89.082031 60.695312 89.03125 C 60.972656 88.976562 61.257812 88.960938 61.546875 88.972656 C 61.835938 88.988281 62.128906 89.035156 62.429688 89.117188 C 62.726562 89.199219 63.027344 89.3125 63.332031 89.460938 C 63.636719 89.609375 63.941406 89.789062 64.246094 90 C 64.554688 90.214844 64.859375 90.457031 65.167969 90.730469 C 65.472656 91.007812 65.777344 91.3125 66.082031 91.648438 C 66.382812 91.984375 66.683594 92.347656 66.980469 92.738281 C 67.277344 93.132812 67.570312 93.550781 67.859375 93.996094 C 68.148438 94.441406 68.429688 94.910156 68.707031 95.402344 C 68.984375 95.898438 69.253906 96.414062 69.515625 96.953125 C 69.777344 97.488281 70.03125 98.046875 70.273438 98.625 C 70.519531 99.203125 70.757812 99.792969 70.980469 100.40625 C 71.207031 101.015625 71.421875 101.640625 71.628906 102.277344 C 71.832031 102.914062 72.023438 103.5625 72.207031 104.222656 C 72.386719 104.882812 72.554688 105.546875 72.710938 106.222656 C 72.867188 106.894531 73.011719 107.574219 73.140625 108.253906 Z M 73.140625 108.253906 " fill-opacity="1" fill-rule="nonzero"/><path fill="#000000" d="M 193.332031 85.472656 C 193.464844 86.15625 193.578125 86.839844 193.679688 87.523438 C 193.78125 88.207031 193.867188 88.890625 193.941406 89.570312 C 194.011719 90.25 194.070312 90.921875 194.113281 91.589844 C 194.15625 92.261719 194.183594 92.917969 194.199219 93.570312 C 194.210938 94.21875 194.207031 94.859375 194.191406 95.484375 C 194.175781 96.113281 194.140625 96.722656 194.09375 97.320312 C 194.046875 97.917969 193.984375 98.496094 193.910156 99.058594 C 193.832031 99.617188 193.742188 100.160156 193.636719 100.679688 C 193.53125 101.199219 193.410156 101.695312 193.277344 102.167969 C 193.144531 102.640625 193 103.089844 192.839844 103.515625 C 192.679688 103.9375 192.507812 104.332031 192.324219 104.699219 C 192.140625 105.070312 191.941406 105.40625 191.734375 105.71875 C 191.527344 106.027344 191.308594 106.304688 191.082031 106.554688 C 190.851562 106.804688 190.613281 107.019531 190.367188 107.207031 C 190.117188 107.390625 189.863281 107.542969 189.597656 107.660156 C 189.332031 107.78125 189.0625 107.867188 188.785156 107.917969 C 188.503906 107.972656 188.222656 107.992188 187.933594 107.976562 C 187.644531 107.964844 187.347656 107.914062 187.050781 107.832031 C 186.753906 107.753906 186.453125 107.636719 186.148438 107.488281 C 185.84375 107.34375 185.539062 107.164062 185.230469 106.949219 C 184.925781 106.738281 184.617188 106.492188 184.3125 106.21875 C 184.007812 105.945312 183.703125 105.636719 183.398438 105.304688 C 183.09375 104.96875 182.792969 104.605469 182.496094 104.210938 C 182.199219 103.820312 181.90625 103.402344 181.621094 102.957031 C 181.332031 102.511719 181.050781 102.042969 180.773438 101.546875 C 180.496094 101.054688 180.226562 100.539062 179.964844 100 C 179.703125 99.460938 179.449219 98.902344 179.203125 98.328125 C 178.957031 97.75 178.722656 97.15625 178.496094 96.546875 C 178.269531 95.933594 178.054688 95.3125 177.851562 94.675781 C 177.648438 94.035156 177.453125 93.386719 177.273438 92.730469 C 177.09375 92.070312 176.921875 91.402344 176.769531 90.730469 C 176.613281 90.054688 176.46875 89.378906 176.339844 88.695312 C 176.210938 88.011719 176.09375 87.328125 175.992188 86.644531 C 175.890625 85.960938 175.804688 85.277344 175.734375 84.597656 C 175.660156 83.917969 175.601562 83.246094 175.558594 82.578125 C 175.515625 81.910156 175.488281 81.25 175.476562 80.597656 C 175.464844 79.949219 175.464844 79.308594 175.480469 78.683594 C 175.5 78.054688 175.53125 77.445312 175.578125 76.847656 C 175.625 76.25 175.6875 75.671875 175.765625 75.113281 C 175.839844 74.550781 175.933594 74.011719 176.039062 73.492188 C 176.144531 72.972656 176.261719 72.472656 176.394531 72 C 176.527344 71.527344 176.675781 71.078125 176.832031 70.65625 C 176.992188 70.234375 177.164062 69.835938 177.351562 69.46875 C 177.535156 69.101562 177.730469 68.761719 177.9375 68.453125 C 178.144531 68.140625 178.363281 67.863281 178.59375 67.613281 C 178.820312 67.367188 179.058594 67.148438 179.308594 66.964844 C 179.554688 66.777344 179.8125 66.628906 180.074219 66.507812 C 180.339844 66.386719 180.609375 66.300781 180.890625 66.25 C 181.167969 66.195312 181.453125 66.175781 181.742188 66.191406 C 182.03125 66.207031 182.324219 66.253906 182.621094 66.335938 C 182.921875 66.417969 183.222656 66.53125 183.527344 66.679688 C 183.828125 66.828125 184.136719 67.007812 184.441406 67.21875 C 184.75 67.429688 185.054688 67.675781 185.359375 67.949219 C 185.667969 68.226562 185.972656 68.53125 186.273438 68.867188 C 186.578125 69.203125 186.878906 69.566406 187.175781 69.957031 C 187.472656 70.347656 187.765625 70.769531 188.054688 71.214844 C 188.34375 71.660156 188.625 72.128906 188.902344 72.621094 C 189.175781 73.117188 189.445312 73.632812 189.707031 74.171875 C 189.972656 74.707031 190.222656 75.265625 190.46875 75.84375 C 190.714844 76.417969 190.949219 77.011719 191.175781 77.625 C 191.402344 78.234375 191.617188 78.859375 191.820312 79.496094 C 192.027344 80.132812 192.21875 80.78125 192.398438 81.441406 C 192.582031 82.097656 192.75 82.765625 192.90625 83.441406 C 193.0625 84.113281 193.203125 84.792969 193.332031 85.472656 Z M 193.332031 85.472656 " fill-opacity="1" fill-rule="nonzero"/><path fill="#afd8f9" d="M 184.984375 87.816406 C 190.320312 115.972656 169.863281 155.113281 136.671875 161.402344 C 103.480469 167.699219 70.125 138.761719 64.789062 110.601562 C 59.453125 82.445312 84.15625 65.726562 117.347656 59.433594 C 150.539062 53.140625 179.648438 59.65625 184.984375 87.816406 Z M 184.984375 87.816406 " fill-opacity="1" fill-rule="nonzero"/><path fill="#ffffff" d="M 88.117188 76.921875 C 90.746094 79.25 83.589844 80.953125 78.839844 86.316406 C 74.09375 91.679688 73.542969 98.667969 70.917969 96.339844 C 68.289062 94.011719 70.011719 87.777344 74.761719 82.417969 C 79.511719 77.054688 85.492188 74.597656 88.117188 76.921875 Z M 88.117188 76.921875 " fill-opacity="1" fill-rule="nonzero"/><path fill="#4991c9" d="M 113.917969 61.753906 C 117.175781 78.925781 117.367188 93.316406 114.347656 93.886719 C 111.328125 94.460938 106.242188 80.996094 102.992188 63.824219 C 102.941406 63.5625 102.890625 63.304688 102.84375 63.042969 C 106.289062 61.953125 109.894531 61.007812 113.617188 60.195312 C 113.71875 60.707031 113.820312 61.230469 113.917969 61.753906 Z M 113.917969 61.753906 " fill-opacity="1" fill-rule="nonzero"/><path fill="#4991c9" d="M 132.3125 58.265625 C 135.570312 75.4375 135.761719 89.824219 132.742188 90.398438 C 129.722656 90.96875 124.636719 77.507812 121.382812 60.335938 C 121.285156 59.8125 121.1875 59.292969 121.09375 58.773438 C 124.855469 58.167969 128.554688 57.730469 132.160156 57.480469 C 132.210938 57.742188 132.257812 58 132.308594 58.265625 Z M 132.3125 58.265625 " fill-opacity="1" fill-rule="nonzero"/><path fill="#ffffff" d="M 170.917969 96.695312 C 174.75 116.898438 159.605469 146.878906 134.8125 151.582031 C 110.015625 156.28125 84.953125 133.921875 81.125 113.71875 C 77.296875 93.515625 96.148438 83.117188 120.945312 78.417969 C 145.742188 73.714844 167.089844 76.488281 170.917969 96.691406 Z M 170.917969 96.695312 " fill-opacity="1" fill-rule="nonzero"/><path fill="#000000" d="M 171.199219 98.164062 C 174.902344 117.726562 160.160156 146.777344 136.046875 151.347656 C 111.933594 155.917969 87.585938 134.285156 83.878906 114.71875 C 80.171875 95.15625 98.507812 85.074219 122.625 80.503906 C 146.738281 75.933594 167.492188 78.601562 171.199219 98.167969 Z M 171.199219 98.164062 " fill-opacity="1" fill-rule="nonzero"/><path fill="#31e3d8" d="M 157.34375 102.890625 C 157.4375 103.375 157.503906 103.859375 157.546875 104.339844 C 157.585938 104.824219 157.605469 105.296875 157.597656 105.757812 C 157.589844 106.222656 157.554688 106.667969 157.496094 107.09375 C 157.4375 107.523438 157.355469 107.921875 157.246094 108.296875 C 157.140625 108.671875 157.011719 109.011719 156.859375 109.316406 C 156.710938 109.625 156.539062 109.890625 156.351562 110.117188 C 156.160156 110.34375 155.957031 110.527344 155.738281 110.667969 C 155.515625 110.804688 155.285156 110.898438 155.042969 110.945312 C 154.800781 110.992188 154.550781 110.988281 154.296875 110.941406 C 154.039062 110.890625 153.78125 110.796875 153.523438 110.652344 C 153.261719 110.511719 153.007812 110.324219 152.753906 110.09375 C 152.503906 109.863281 152.257812 109.59375 152.023438 109.285156 C 151.785156 108.976562 151.5625 108.636719 151.351562 108.257812 C 151.140625 107.882812 150.945312 107.480469 150.769531 107.054688 C 150.59375 106.625 150.433594 106.179688 150.296875 105.714844 C 150.160156 105.25 150.046875 104.777344 149.953125 104.292969 C 149.863281 103.808594 149.796875 103.328125 149.753906 102.84375 C 149.710938 102.363281 149.695312 101.890625 149.703125 101.425781 C 149.710938 100.960938 149.746094 100.515625 149.804688 100.089844 C 149.863281 99.664062 149.945312 99.261719 150.050781 98.890625 C 150.160156 98.515625 150.289062 98.175781 150.4375 97.867188 C 150.589844 97.5625 150.761719 97.296875 150.949219 97.066406 C 151.136719 96.839844 151.34375 96.65625 151.5625 96.519531 C 151.78125 96.378906 152.015625 96.285156 152.257812 96.242188 C 152.5 96.195312 152.75 96.195312 153.003906 96.246094 C 153.261719 96.292969 153.519531 96.390625 153.777344 96.53125 C 154.035156 96.675781 154.292969 96.859375 154.542969 97.089844 C 154.796875 97.320312 155.042969 97.589844 155.277344 97.898438 C 155.515625 98.207031 155.738281 98.550781 155.949219 98.925781 C 156.160156 99.300781 156.351562 99.703125 156.53125 100.132812 C 156.707031 100.558594 156.863281 101.007812 157.003906 101.472656 C 157.140625 101.9375 157.253906 102.410156 157.34375 102.890625 Z M 157.34375 102.890625 " fill-opacity="1" fill-rule="nonzero"/><path fill="#31e3d8" d="M 103.402344 113.113281 C 103.496094 113.597656 103.5625 114.078125 103.605469 114.5625 C 103.648438 115.042969 103.664062 115.515625 103.65625 115.980469 C 103.648438 116.445312 103.613281 116.890625 103.554688 117.316406 C 103.496094 117.742188 103.414062 118.144531 103.304688 118.515625 C 103.199219 118.890625 103.070312 119.230469 102.917969 119.539062 C 102.769531 119.84375 102.597656 120.109375 102.410156 120.339844 C 102.21875 120.566406 102.015625 120.75 101.796875 120.886719 C 101.574219 121.027344 101.34375 121.121094 101.101562 121.164062 C 100.859375 121.210938 100.609375 121.210938 100.355469 121.160156 C 100.097656 121.113281 99.839844 121.015625 99.582031 120.875 C 99.320312 120.730469 99.066406 120.546875 98.8125 120.316406 C 98.5625 120.085938 98.316406 119.816406 98.082031 119.507812 C 97.84375 119.199219 97.621094 118.855469 97.410156 118.480469 C 97.199219 118.105469 97.003906 117.703125 96.828125 117.273438 C 96.652344 116.84375 96.492188 116.398438 96.355469 115.933594 C 96.21875 115.46875 96.105469 114.996094 96.011719 114.515625 C 95.921875 114.03125 95.855469 113.546875 95.8125 113.066406 C 95.769531 112.582031 95.753906 112.109375 95.761719 111.648438 C 95.769531 111.183594 95.804688 110.738281 95.863281 110.3125 C 95.921875 109.882812 96.003906 109.484375 96.109375 109.109375 C 96.21875 108.734375 96.347656 108.394531 96.496094 108.089844 C 96.648438 107.78125 96.820312 107.515625 97.007812 107.289062 C 97.195312 107.0625 97.402344 106.878906 97.621094 106.738281 C 97.839844 106.601562 98.074219 106.507812 98.316406 106.460938 C 98.558594 106.414062 98.808594 106.417969 99.0625 106.464844 C 99.320312 106.515625 99.578125 106.609375 99.835938 106.753906 C 100.09375 106.894531 100.351562 107.082031 100.601562 107.3125 C 100.855469 107.542969 101.101562 107.808594 101.335938 108.121094 C 101.574219 108.429688 101.796875 108.769531 102.007812 109.144531 C 102.21875 109.523438 102.410156 109.925781 102.589844 110.351562 C 102.765625 110.78125 102.921875 111.226562 103.0625 111.691406 C 103.199219 112.15625 103.3125 112.628906 103.402344 113.113281 Z M 103.402344 113.113281 " fill-opacity="1" fill-rule="nonzero"/><path fill="#31e3d8" d="M 137.085938 114.289062 C 137.675781 117.398438 134.113281 120.6875 129.132812 121.628906 C 124.152344 122.574219 119.636719 120.816406 119.050781 117.707031 C 118.460938 114.601562 123.46875 118.957031 128.449219 118.015625 C 133.429688 117.070312 136.496094 111.179688 137.085938 114.289062 Z M 137.085938 114.289062 " fill-opacity="1" fill-rule="nonzero"/><path fill="#000000" d="M 94.917969 187.230469 C 95.289062 187.507812 95.601562 187.863281 95.855469 188.289062 C 96.109375 188.714844 96.292969 189.207031 96.414062 189.765625 C 96.535156 190.324219 96.589844 190.941406 96.574219 191.609375 C 96.558594 192.277344 96.476562 192.988281 96.324219 193.742188 C 96.175781 194.496094 95.957031 195.277344 95.679688 196.085938 C 95.398438 196.894531 95.058594 197.71875 94.660156 198.550781 C 94.261719 199.386719 93.808594 200.214844 93.308594 201.042969 C 92.804688 201.867188 92.261719 202.675781 91.675781 203.460938 C 91.085938 204.25 90.46875 205 89.820312 205.71875 C 89.171875 206.4375 88.507812 207.105469 87.820312 207.726562 C 87.136719 208.347656 86.445312 208.90625 85.75 209.40625 C 85.054688 209.90625 84.367188 210.335938 83.691406 210.695312 C 83.011719 211.054688 82.351562 211.339844 81.714844 211.542969 C 81.078125 211.75 80.476562 211.875 79.90625 211.917969 C 79.335938 211.960938 78.8125 211.925781 78.332031 211.804688 C 77.851562 211.683594 77.421875 211.484375 77.046875 211.207031 C 76.675781 210.929688 76.363281 210.574219 76.109375 210.148438 C 75.859375 209.722656 75.671875 209.230469 75.550781 208.671875 C 75.429688 208.113281 75.378906 207.5 75.390625 206.828125 C 75.40625 206.160156 75.492188 205.449219 75.640625 204.695312 C 75.792969 203.941406 76.007812 203.160156 76.285156 202.351562 C 76.566406 201.542969 76.90625 200.722656 77.304688 199.886719 C 77.703125 199.054688 78.15625 198.222656 78.65625 197.398438 C 79.160156 196.570312 79.703125 195.761719 80.292969 194.976562 C 80.878906 194.1875 81.496094 193.4375 82.144531 192.71875 C 82.792969 192 83.457031 191.332031 84.144531 190.710938 C 84.828125 190.089844 85.519531 189.53125 86.214844 189.03125 C 86.910156 188.53125 87.597656 188.101562 88.277344 187.742188 C 88.953125 187.382812 89.613281 187.101562 90.25 186.894531 C 90.886719 186.6875 91.488281 186.5625 92.058594 186.519531 C 92.628906 186.476562 93.152344 186.515625 93.632812 186.632812 C 94.117188 186.753906 94.542969 186.953125 94.917969 187.230469 Z M 94.917969 187.230469 " fill-opacity="1" fill-rule="nonzero"/><path fill="#afd8f9" d="M 91.53125 202.34375 C 91.554688 203.214844 91.460938 204.078125 91.253906 204.933594 C 91.046875 205.792969 90.730469 206.625 90.304688 207.441406 C 89.878906 208.253906 89.351562 209.027344 88.722656 209.765625 C 88.09375 210.503906 87.375 211.191406 86.566406 211.824219 C 85.757812 212.457031 84.875 213.027344 83.917969 213.535156 C 82.960938 214.039062 81.949219 214.472656 80.882812 214.828125 C 79.8125 215.1875 78.710938 215.464844 77.574219 215.664062 C 76.4375 215.859375 75.285156 215.972656 74.121094 216 C 72.957031 216.027344 71.800781 215.972656 70.65625 215.828125 C 69.507812 215.6875 68.394531 215.464844 67.3125 215.15625 C 66.226562 214.851562 65.195312 214.46875 64.214844 214.007812 C 63.234375 213.550781 62.328125 213.023438 61.488281 212.429688 C 60.652344 211.832031 59.898438 211.183594 59.234375 210.476562 C 58.570312 209.769531 58.007812 209.019531 57.542969 208.230469 C 57.078125 207.4375 56.722656 206.617188 56.472656 205.773438 C 56.226562 204.925781 56.089844 204.070312 56.070312 203.199219 C 56.050781 202.332031 56.144531 201.46875 56.347656 200.609375 C 56.554688 199.753906 56.871094 198.917969 57.296875 198.105469 C 57.726562 197.292969 58.253906 196.515625 58.882812 195.777344 C 59.511719 195.042969 60.230469 194.355469 61.039062 193.722656 C 61.847656 193.085938 62.730469 192.515625 63.6875 192.011719 C 64.640625 191.503906 65.65625 191.074219 66.722656 190.714844 C 67.789062 190.355469 68.890625 190.078125 70.03125 189.882812 C 71.167969 189.683594 72.320312 189.574219 73.484375 189.542969 C 74.648438 189.515625 75.800781 189.574219 76.949219 189.714844 C 78.09375 189.859375 79.210938 190.082031 80.292969 190.386719 C 81.375 190.695312 82.410156 191.078125 83.386719 191.535156 C 84.367188 191.996094 85.277344 192.523438 86.113281 193.117188 C 86.953125 193.710938 87.703125 194.363281 88.367188 195.066406 C 89.03125 195.773438 89.597656 196.523438 90.0625 197.316406 C 90.527344 198.109375 90.882812 198.925781 91.128906 199.773438 C 91.378906 200.621094 91.511719 201.476562 91.53125 202.34375 Z M 91.53125 202.34375 " fill-opacity="1" fill-rule="nonzero"/><path fill="#4991c9" d="M 71.875 203.371094 C 71.886719 203.917969 71.851562 204.460938 71.773438 204.996094 C 71.691406 205.535156 71.5625 206.058594 71.390625 206.566406 C 71.21875 207.074219 71 207.558594 70.742188 208.019531 C 70.484375 208.480469 70.191406 208.90625 69.859375 209.300781 C 69.523438 209.695312 69.160156 210.050781 68.765625 210.363281 C 68.371094 210.675781 67.953125 210.941406 67.511719 211.160156 C 67.066406 211.382812 66.609375 211.550781 66.140625 211.667969 C 65.667969 211.785156 65.1875 211.851562 64.707031 211.863281 C 64.222656 211.875 63.742188 211.832031 63.265625 211.738281 C 62.785156 211.640625 62.324219 211.496094 61.871094 211.296875 C 61.417969 211.097656 60.988281 210.855469 60.578125 210.558594 C 60.167969 210.265625 59.789062 209.929688 59.4375 209.554688 C 59.085938 209.175781 58.769531 208.761719 58.488281 208.316406 C 58.210938 207.867188 57.972656 207.394531 57.773438 206.894531 C 57.578125 206.394531 57.425781 205.878906 57.316406 205.34375 C 57.210938 204.8125 57.148438 204.273438 57.136719 203.726562 C 57.125 203.179688 57.15625 202.640625 57.238281 202.101562 C 57.320312 201.566406 57.449219 201.042969 57.621094 200.53125 C 57.792969 200.023438 58.007812 199.539062 58.265625 199.078125 C 58.523438 198.617188 58.820312 198.191406 59.152344 197.796875 C 59.484375 197.402344 59.851562 197.050781 60.246094 196.738281 C 60.640625 196.425781 61.058594 196.15625 61.5 195.9375 C 61.941406 195.71875 62.398438 195.550781 62.871094 195.433594 C 63.34375 195.3125 63.820312 195.25 64.304688 195.238281 C 64.789062 195.226562 65.269531 195.265625 65.746094 195.363281 C 66.222656 195.457031 66.6875 195.605469 67.140625 195.800781 C 67.59375 196 68.023438 196.246094 68.433594 196.539062 C 68.84375 196.832031 69.222656 197.167969 69.574219 197.546875 C 69.925781 197.925781 70.242188 198.335938 70.519531 198.785156 C 70.800781 199.230469 71.039062 199.703125 71.238281 200.203125 C 71.433594 200.703125 71.585938 201.222656 71.695312 201.753906 C 71.800781 202.285156 71.859375 202.828125 71.875 203.371094 Z M 71.875 203.371094 " fill-opacity="1" fill-rule="nonzero"/><path fill="#ffffff" d="M 78.902344 195.144531 C 74.664062 195.25 71.277344 197.195312 71.230469 195.332031 C 71.1875 193.464844 74.582031 191.871094 78.820312 191.769531 C 83.058594 191.664062 86.527344 193.09375 86.570312 194.957031 C 86.617188 196.824219 83.136719 195.042969 78.898438 195.144531 Z M 78.902344 195.144531 " fill-opacity="1" fill-rule="nonzero"/><path fill="#000000" d="M 71.347656 195.410156 C 73.003906 192.421875 69.0625 190.96875 65.605469 192.609375 L 62.09375 194.308594 C 63.261719 187.375 57.980469 180.742188 54.867188 182.292969 C 51.035156 184.195312 55.804688 190.742188 56.117188 197.390625 C 56.292969 201.121094 59.902344 213.144531 68.390625 209.535156 L 73.191406 206.695312 C 77.035156 203.550781 72.761719 202.601562 73.335938 200.445312 C 74.535156 195.957031 70.5625 196.816406 71.347656 195.40625 Z M 71.347656 195.410156 " fill-opacity="1" fill-rule="nonzero"/><path fill="#4991c9" d="M 58.714844 197.175781 C 58.816406 196.8125 60.230469 195.367188 62.097656 194.308594 L 65.59375 192.484375 C 68.828125 190.917969 71.984375 192.09375 71.722656 194.320312 C 70.304688 189.339844 62.070312 194.851562 58.714844 197.175781 Z M 58.714844 197.175781 " fill-opacity="1" fill-rule="nonzero"/><path fill="#4991c9" d="M 66.3125 204.683594 C 66.378906 204.8125 68.09375 204.464844 69.949219 203.523438 C 71.804688 202.582031 73.097656 201.410156 73.035156 201.28125 C 72.96875 201.152344 71.570312 202.121094 69.710938 203.0625 C 67.855469 204 66.246094 204.558594 66.3125 204.683594 Z M 66.3125 204.683594 " fill-opacity="1" fill-rule="nonzero"/><path fill="#4991c9" d="M 71.019531 196.230469 C 70.957031 196.109375 69.089844 196.570312 67.027344 197.613281 C 64.96875 198.65625 63.492188 199.894531 63.550781 200.011719 C 63.609375 200.132812 65.1875 199.09375 67.246094 198.050781 C 69.308594 197.003906 71.078125 196.351562 71.015625 196.234375 Z M 71.019531 196.230469 " fill-opacity="1" fill-rule="nonzero"/><path fill="#000000" d="M 221.410156 127.058594 C 219.988281 123.140625 225.894531 118.632812 229.492188 118.507812 L 238.441406 118.542969 L 237.695312 128.957031 L 229.9375 131.535156 C 226.34375 131.65625 222.835938 130.976562 221.410156 127.058594 Z M 221.410156 127.058594 " fill-opacity="1" fill-rule="nonzero"/><path fill="#c49a6c" d="M 221.171875 44.878906 L 229 44.238281 L 238.265625 157.699219 L 230.441406 158.339844 Z M 221.171875 44.878906 " fill-opacity="1" fill-rule="nonzero"/><g clip-path="url(#55d5a46cd5)"><path fill="#e7d7c4" d="M 270.035156 49.222656 C 270.035156 50.683594 269.960938 52.140625 269.820312 53.59375 C 269.675781 55.042969 269.460938 56.488281 269.175781 57.917969 C 268.894531 59.351562 268.539062 60.765625 268.113281 62.164062 C 267.691406 63.558594 267.199219 64.933594 266.640625 66.28125 C 266.082031 67.628906 265.460938 68.949219 264.769531 70.238281 C 264.082031 71.523438 263.332031 72.773438 262.523438 73.988281 C 261.710938 75.203125 260.84375 76.375 259.917969 77.503906 C 258.992188 78.632812 258.011719 79.710938 256.980469 80.742188 C 255.949219 81.777344 254.867188 82.753906 253.738281 83.683594 C 252.609375 84.609375 251.441406 85.476562 250.226562 86.289062 C 249.011719 87.097656 247.761719 87.847656 246.476562 88.535156 C 245.1875 89.226562 243.871094 89.847656 242.519531 90.40625 C 241.171875 90.964844 239.800781 91.457031 238.402344 91.882812 C 237.003906 92.304688 235.589844 92.660156 234.160156 92.945312 C 232.726562 93.230469 231.285156 93.441406 229.832031 93.585938 C 228.378906 93.730469 226.925781 93.800781 225.464844 93.800781 C 224.003906 93.800781 222.550781 93.730469 221.097656 93.585938 C 219.644531 93.441406 218.203125 93.230469 216.769531 92.945312 C 215.339844 92.660156 213.925781 92.304688 212.527344 91.882812 C 211.128906 91.457031 209.757812 90.964844 208.410156 90.40625 C 207.058594 89.847656 205.742188 89.226562 204.457031 88.535156 C 203.167969 87.847656 201.917969 87.097656 200.703125 86.289062 C 199.488281 85.476562 198.320312 84.609375 197.191406 83.683594 C 196.0625 82.753906 194.980469 81.777344 193.949219 80.742188 C 192.917969 79.710938 191.9375 78.632812 191.011719 77.503906 C 190.085938 76.375 189.21875 75.203125 188.40625 73.988281 C 187.597656 72.773438 186.847656 71.523438 186.160156 70.238281 C 185.46875 68.949219 184.847656 67.628906 184.289062 66.28125 C 183.730469 64.933594 183.238281 63.558594 182.816406 62.164062 C 182.390625 60.765625 182.035156 59.351562 181.753906 57.917969 C 181.46875 56.488281 181.253906 55.042969 181.109375 53.59375 C 180.96875 52.140625 180.894531 50.683594 180.894531 49.222656 C 180.894531 47.761719 180.96875 46.304688 181.109375 44.851562 C 181.253906 43.398438 181.46875 41.957031 181.753906 40.527344 C 182.035156 39.09375 182.390625 37.679688 182.816406 36.28125 C 183.238281 34.886719 183.730469 33.511719 184.289062 32.164062 C 184.847656 30.8125 185.46875 29.496094 186.160156 28.207031 C 186.847656 26.921875 187.597656 25.671875 188.40625 24.457031 C 189.21875 23.242188 190.085938 22.070312 191.011719 20.941406 C 191.9375 19.8125 192.917969 18.734375 193.949219 17.699219 C 194.980469 16.667969 196.0625 15.691406 197.191406 14.761719 C 198.320312 13.835938 199.488281 12.96875 200.703125 12.15625 C 201.917969 11.347656 203.167969 10.597656 204.457031 9.910156 C 205.742188 9.21875 207.058594 8.597656 208.410156 8.039062 C 209.757812 7.480469 211.128906 6.988281 212.527344 6.5625 C 213.925781 6.140625 215.339844 5.785156 216.769531 5.5 C 218.203125 5.214844 219.644531 5.003906 221.097656 4.859375 C 222.550781 4.714844 224.003906 4.644531 225.464844 4.644531 C 226.925781 4.644531 228.378906 4.714844 229.832031 4.859375 C 231.285156 5.003906 232.726562 5.214844 234.160156 5.5 C 235.589844 5.785156 237.003906 6.140625 238.402344 6.5625 C 239.800781 6.988281 241.171875 7.480469 242.519531 8.039062 C 243.871094 8.597656 245.1875 9.21875 246.476562 9.910156 C 247.761719 10.597656 249.011719 11.347656 250.226562 12.15625 C 251.441406 12.96875 252.609375 13.835938 253.738281 14.761719 C 254.867188 15.691406 255.949219 16.667969 256.980469 17.699219 C 258.011719 18.734375 258.992188 19.8125 259.917969 20.941406 C 260.84375 22.070312 261.710938 23.242188 262.523438 24.457031 C 263.332031 25.671875 264.082031 26.921875 264.769531 28.207031 C 265.460938 29.496094 266.082031 30.8125 266.640625 32.164062 C 267.199219 33.511719 267.691406 34.886719 268.113281 36.28125 C 268.539062 37.679688 268.894531 39.09375 269.175781 40.527344 C 269.460938 41.957031 269.675781 43.398438 269.820312 44.851562 C 269.960938 46.304688 270.035156 47.761719 270.035156 49.222656 Z M 270.035156 49.222656 " fill-opacity="1" fill-rule="nonzero"/></g><path fill="#39b54a" d="M 222.203125 9.257812 C 200.136719 11.058594 183.707031 30.414062 185.511719 52.488281 C 187.3125 74.558594 206.664062 90.988281 228.730469 89.1875 C 250.800781 87.382812 267.226562 68.03125 265.425781 45.957031 C 263.621094 23.886719 244.269531 7.453125 222.203125 9.257812 Z M 228.359375 84.644531 C 208.796875 86.242188 191.648438 71.675781 190.050781 52.117188 C 188.453125 32.550781 203.015625 15.394531 222.574219 13.796875 C 242.132812 12.199219 259.285156 26.765625 260.882812 46.328125 C 262.480469 65.890625 247.917969 83.046875 228.359375 84.644531 Z M 228.359375 84.644531 " fill-opacity="1" fill-rule="nonzero"/><path fill="#39b54a" d="M 195.976562 53.09375 L 218.773438 70.660156 L 254.808594 33.613281 L 243.699219 24.375 L 218.527344 59.671875 L 204.6875 46.125 Z M 195.976562 53.09375 " fill-opacity="1" fill-rule="nonzero"/><path fill="#000000" d="M 237.359375 117.574219 L 229.1875 122.664062 C 228.253906 123.1875 228.347656 124.550781 229.339844 124.960938 C 231.035156 125.652344 234.964844 124.664062 238.644531 121.097656 C 240.78125 119.027344 237.359375 117.574219 237.359375 117.574219 Z M 237.359375 117.574219 " fill-opacity="1" fill-rule="nonzero"/><path fill="#000000" d="M 237.773438 127.847656 L 230.0625 131.316406 C 229.074219 131.734375 229.015625 133.097656 229.957031 133.613281 C 231.558594 134.496094 233.019531 135.15625 237.15625 131.765625 C 239.128906 130.148438 237.773438 127.847656 237.773438 127.847656 Z M 237.773438 127.847656 " fill-opacity="1" fill-rule="nonzero"/><path fill="#000000" d="M 237.90625 122.996094 L 229.183594 126.09375 C 228.007812 126.46875 227.722656 127.980469 228.691406 128.628906 C 230.351562 129.742188 232.746094 130.359375 238.074219 127.171875 C 240.324219 125.191406 237.902344 122.996094 237.902344 122.996094 Z M 237.90625 122.996094 " fill-opacity="1" fill-rule="nonzero"/><path fill="#000000" d="M 224.324219 121.183594 L 230.441406 113.839844 C 231.078125 112.90625 232.503906 113.144531 232.847656 114.234375 C 233.433594 116.09375 233.742188 119.859375 228.988281 122.855469 C 224.398438 125.746094 224.324219 121.183594 224.324219 121.183594 Z M 224.324219 121.183594 " fill-opacity="1" fill-rule="nonzero"/></svg>